HIERARCHY
ROOT Hips
{
	OFFSET -0.179506 -22.333345 2.821913
	CHANNELS 6 Xposition Yposition Zposition Zrotation Yrotation Xrotation 
	JOINT LeftUpLeg
	{
		OFFSET 6.951974 -9.140623 -0.681533
		CHANNELS 3 Zrotation Yrotation Xrotation
		JOINT LeftLeg
		{
			OFFSET 3.427654 -37.519855 -0.449580
			CHANNELS 3 Zrotation Yrotation Xrotation
			JOINT LeftFoot
			{
				OFFSET -1.359570 -39.796059 -4.369333
				CHANNELS 3 Zrotation Yrotation Xrotation
				JOINT LeftToe
				{
					OFFSET 2.635814 -5.579078 11.928840
					CHANNELS 3 Zrotation Yrotation Xrotation
					End Site
					{
						OFFSET 0.000000 0.000000 0.000000
					}
				}
			}
		}
	}
	JOINT RightUpLeg
	{
		OFFSET -6.767048 -9.052170 -0.431982
		CHANNELS 3 Zrotation Yrotation Xrotation
		JOINT RightLeg
		{
			OFFSET -3.829005 -38.256897 -0.885003
			CHANNELS 3 Zrotation Yrotation Xrotation
			JOINT RightFoot
			{
				OFFSET 1.577377 -39.841461 -4.231180
				CHANNELS 3 Zrotation Yrotation Xrotation
				JOINT RightToe
				{
					OFFSET -2.537174 -4.814398 12.334795
					CHANNELS 3 Zrotation Yrotation Xrotation
					End Site
					{
						OFFSET 0.000000 0.000000 0.000000
					}
				}
			}
		}
	}
	JOINT Spine
	{
		OFFSET -0.253288 10.896323 -2.669631
		CHANNELS 3 Zrotation Yrotation Xrotation
		JOINT Spine1
		{
			OFFSET 0.548704 13.518043 0.109247
			CHANNELS 3 Zrotation Yrotation Xrotation
			JOINT Spine2
			{
				OFFSET 0.145701 5.292222 2.542457
				CHANNELS 3 Zrotation Yrotation Xrotation
				JOINT Neck
				{
					OFFSET -0.277840 21.387037 -4.285703
					CHANNELS 3 Zrotation Yrotation Xrotation
					JOINT Head
					{
						OFFSET 0.515184 6.496960 5.134897
						CHANNELS 3 Zrotation Yrotation Xrotation
						End Site
						{
							OFFSET 0.000000 0.000000 0.000000
						}
					}
				}
				JOINT LeftShoulder
				{
					OFFSET 7.884473 12.174932 -3.408961
					CHANNELS 3 Zrotation Yrotation Xrotation
					JOINT LeftArm
					{
						OFFSET 9.097692 3.046888 -0.886815
						CHANNELS 3 Zrotation Yrotation Xrotation
						JOINT LeftForeArm
						{
							OFFSET 25.961220 -1.277207 -2.745643
							CHANNELS 3 Zrotation Yrotation Xrotation
							JOINT LeftHand
							{
								OFFSET 24.923361 0.898606 -0.117091
								CHANNELS 3 Zrotation Yrotation Xrotation
								End Site
								{
									OFFSET 0.000000 0.000000 0.000000
								}
							}
						}
					}
				}
				JOINT RightShoulder
				{
					OFFSET -8.175920 11.883285 -3.861528
					CHANNELS 3 Zrotation Yrotation Xrotation
					JOINT RightArm
					{
						OFFSET -9.601238 3.255117 -0.914307
						CHANNELS 3 Zrotation Yrotation Xrotation
						JOINT RightForeArm
						{
							OFFSET -25.374195 -1.332924 -2.140099
							CHANNELS 3 Zrotation Yrotation Xrotation
							JOINT RightHand
							{
								OFFSET -25.529810 0.777228 -0.555919
								CHANNELS 3 Zrotation Yrotation Xrotation
								End Site
								{
									OFFSET 0.000000 0.000000 0.000000
								}
							}
						}
					}
				}
			}
		}
	}
}
MOTION
Frames: 13
Frame Time: 0.033333
-113.638222 -55.818138 93.880836 151.322660 -0.696191 79.157742 14.439746 9.183244 -7.429825 -1.063858 12.534487 23.432922 -6.587264 0.984981 -8.286689 nan nan nan -10.757916 -3.933437 5.697872 -2.748684 -0.951434 21.853813 1.221199 3.208686 -12.217100 nan nan nan 3.125025 0.904034 11.672916 -0.803736 -3.079371 9.186170 -0.070021 -0.045615 -6.626311 -4.883681 15.861165 15.835032 -2.657222 22.550548 20.622521 -18.958634 -17.303012 6.061814 -43.733347 -16.386631 -8.352379 75.837005 -48.613407 -59.309217 10.120584 -30.255023 -29.748865 10.093734 24.644593 2.332968 68.615015 29.131159 25.567564 -158.996588 80.799952 -138.823279 2.332050 26.445191 -38.635746 
-113.643867 -55.808788 93.879631 151.324962 -0.689848 79.157525 14.452892 9.164041 -7.430017 -1.081642 12.528745 23.435669 -6.599783 1.015214 -8.294869 nan nan nan -10.746249 -3.948388 5.700519 -2.757392 -0.934083 21.854625 1.227671 3.217550 -12.192298 nan nan nan 3.133525 0.900706 11.685340 -0.809955 -3.079357 9.132162 -0.064900 -0.034672 -6.593521 -4.886869 15.844832 15.818803 -2.637302 22.556268 20.642830 -18.943586 -17.325289 6.067129 -43.745696 -16.396813 -8.350998 75.838904 -48.596506 -59.277993 10.155801 -30.253543 -29.772280 10.094135 24.649173 2.327399 68.594338 29.120555 25.539684 -159.072532 80.792800 -138.883138 2.352239 26.452556 -38.664707 
-113.652290 -55.796349 93.878822 151.328408 -0.688093 79.161183 14.457057 9.141489 -7.433900 -1.094451 12.527724 23.437923 -6.604150 1.046160 -8.298421 nan nan nan -10.740420 -3.963874 5.699906 -2.767673 -0.925976 21.852964 1.238317 3.217475 -12.159958 nan nan nan 3.136727 0.903393 11.693075 -0.813254 -3.078527 9.075574 -0.058783 -0.027367 -6.560097 -4.884600 15.822286 15.809621 -2.619254 22.560499 20.658997 -18.928990 -17.344817 6.080819 -43.752259 -16.414318 -8.346491 75.831534 -48.586417 -59.257031 10.210234 -30.257184 -29.828689 10.093958 24.641713 2.320508 68.579085 29.105697 25.521441 -159.125961 80.781989 -138.923567 2.350459 26.454023 -38.691260 
-113.657372 -55.784294 93.877472 151.331658 -0.685791 79.167162 14.459945 9.118650 -7.436717 -1.100116 12.531275 23.444310 -6.605348 1.071315 -8.299110 nan nan nan -10.738032 -3.975958 5.698472 -2.777819 -0.923690 21.852717 1.247871 3.208786 -12.134529 nan nan nan 3.138698 0.908163 11.708691 -0.812234 -3.075262 9.024047 -0.050981 -0.027383 -6.524471 -4.881667 15.805047 15.790912 -2.610061 22.564751 20.680741 -18.910311 -17.343109 6.082546 -43.761112 -16.439642 -8.334778 75.806332 -48.590032 -59.228004 10.260628 -30.263775 -29.901902 10.088958 24.620394 2.306098 68.583580 29.097764 25.523080 -159.126578 80.771059 -138.909880 2.366253 26.459703 -38.693097 
-113.661308 -55.774448 93.875145 151.330198 -0.678742 79.167185 14.462798 9.090896 -7.436953 -1.103510 12.543770 23.452797 -6.608136 1.091571 -8.304427 nan nan nan -10.739705 -3.983219 5.697701 -2.786698 -0.916307 21.857760 1.256838 3.199763 -12.107688 nan nan nan 3.134176 0.917442 11.711773 -0.809900 -3.072136 8.987272 -0.044058 -0.021877 -6.494272 -4.872005 15.783384 15.780046 -2.601719 22.562066 20.698577 -18.893277 -17.346580 6.084168 -43.768407 -16.466197 -8.315943 75.775279 -48.593348 -59.218525 10.300472 -30.272297 -29.979970 10.093873 24.603690 2.295897 68.576011 29.086831 25.522718 -159.075731 80.747557 -138.857142 2.397308 26.463081 -38.674556 
-113.659363 -55.758369 93.872093 151.322538 -0.677532 79.161145 14.469592 9.060935 -7.422063 -1.112511 12.556388 23.459410 -6.613896 1.114607 -8.319411 nan nan nan -10.738806 -3.989356 5.706105 -2.796218 -0.899361 21.865124 1.267500 3.193707 -12.080882 nan nan nan 3.132883 0.927036 11.721615 -0.808918 -3.064118 8.946411 -0.036857 -0.011331 -6.464554 -4.873968 15.764368 15.765352 -2.590649 22.557481 20.706713 -18.869514 -17.347514 6.078363 -43.779860 -16.490758 -8.290430 75.743574 -48.605505 -59.225277 10.359472 -30.269989 -30.097851 10.087098 24.588983 2.277414 68.574160 29.074672 25.530127 -159.025071 80.717053 -138.815076 2.426650 26.455129 -38.675729 
-113.651337 -55.733547 93.864159 151.280087 -0.677897 79.135781 14.491247 8.949818 -7.370729 -1.137503 12.590113 23.492739 -6.622718 1.190451 -8.434018 nan nan nan -10.724920 -4.009023 5.728642 -2.873165 -0.873325 21.884402 1.303176 3.147919 -12.057854 nan nan nan 3.153165 0.952753 11.819215 -0.841964 -3.011765 8.733886 -0.034279 0.034058 -6.318457 -4.914486 15.660388 15.704648 -2.531716 22.518639 20.728160 -18.761759 -17.321112 6.019374 -43.870247 -16.621236 -8.185699 75.569656 -48.653245 -59.168055 10.538781 -30.260906 -30.576382 10.002565 24.512842 2.175278 68.637654 28.988331 25.592989 -158.962532 80.615907 -138.750929 2.593268 26.471404 -38.728976 
-113.647774 -55.717472 93.858582 151.258963 -0.642793 79.152623 14.526332 8.961550 -7.391189 -1.117601 12.620401 23.512181 -6.688414 1.136319 -8.472755 nan nan nan -10.678221 -4.048479 5.696957 -2.948309 -0.905524 21.893526 1.315250 3.219745 -12.063067 nan nan nan 3.220848 0.924264 11.883347 -0.888449 -3.000889 8.490373 -0.037496 0.057120 -6.206942 -4.905768 15.640484 15.761096 -2.478289 22.547900 20.730287 -18.728983 -17.321906 6.020068 -43.931208 -16.672871 -8.227515 75.510675 -48.626698 -58.982586 10.349399 -30.382522 -30.463728 10.027542 24.491551 2.192499 68.639836 28.997208 25.526644 -159.208300 80.669866 -138.961508 2.562949 26.563256 -38.690507 
-113.635483 -55.692444 93.856644 151.240881 -0.619079 79.165474 14.587328 9.022899 -7.407151 -1.161260 12.651372 23.558182 -6.735273 1.087823 -8.486310 nan nan nan -10.652076 -4.069510 5.713721 -2.967001 -0.888624 21.852529 1.328182 3.249649 -11.963056 nan nan nan 3.252790 0.931939 11.840754 -0.900996 -3.013017 8.461661 -0.045855 0.071374 -6.203230 -4.889906 15.614306 15.827488 -2.435757 22.565143 20.719498 -18.743570 -17.409440 6.106806 -43.910131 -16.634131 -8.288697 75.540028 -48.559905 -58.901532 10.315838 -30.475320 -30.381593 10.076456 24.546313 2.263031 68.557018 28.973894 25.400021 -159.450926 80.651396 -139.168373 2.558556 26.651949 -38.778012 
-113.615616 -55.666893 93.852722 151.234376 -0.608110 79.151521 14.621179 9.045096 -7.380748 -1.202789 12.605541 23.565869 -6.735598 1.138541 -8.492947 nan nan nan -10.627747 -4.079286 5.744342 -2.958322 -0.830162 21.860343 1.325756 3.235430 -11.941447 nan nan nan 3.270704 0.974698 11.823347 -0.900056 -3.004594 8.426434 -0.044547 0.023115 -6.146777 -4.873447 15.596766 15.846233 -2.454910 22.587148 20.689406 -18.683381 -17.439902 6.171281 -43.939599 -16.641499 -8.267469 75.506918 -48.559154 -58.752963 10.655552 -30.465508 -30.550832 10.065430 24.564269 2.263404 68.530504 28.985308 25.400644 -159.487401 80.686566 -139.201591 2.336373 26.673352 -38.979726 
-113.607567 -55.643147 93.849480 151.241786 -0.621454 79.134965 14.594752 9.024386 -7.349765 -1.174173 12.595445 23.565555 -6.709267 1.167792 -8.497193 nan nan nan -10.654278 -4.090233 5.776292 -2.946809 -0.815951 21.875018 1.321518 3.213420 -12.035185 nan nan nan 3.289032 1.007560 11.879939 -0.908714 -2.981103 8.352510 -0.041316 -0.048167 -6.099566 -4.861555 15.609517 15.769031 -2.493549 22.581780 20.698208 -18.635035 -17.352035 6.140179 -43.964338 -16.704228 -8.239275 75.411195 -48.677812 -58.651674 10.758239 -30.448996 -30.596238 10.035329 24.485709 2.226386 68.603036 29.048413 25.515451 -159.538975 80.752722 -139.264374 2.151397 26.578110 -38.895402 
-113.611504 -55.631508 93.847343 151.214918 -0.631626 79.158317 14.558493 9.046161 -7.387988 -1.113960 12.613081 23.614188 -6.671641 1.197330 -8.520508 nan nan nan -10.683085 -4.126112 5.735030 -2.926129 -0.767281 21.898980 1.286728 3.260038 -12.121650 nan nan nan 3.363701 0.989518 11.970208 -0.954805 -2.954232 8.205612 -0.065251 -0.083081 -6.093434 -4.962813 15.611178 15.695446 -2.490426 22.607126 20.734952 -18.609844 -17.312000 6.127058 -43.950565 -16.623237 -8.287008 75.384556 -48.803504 -58.612365 10.745782 -30.426966 -30.445493 9.984320 24.495896 2.253710 68.713345 29.053662 25.520854 -159.755948 80.783768 -139.444275 2.063182 26.518182 -38.608270 
-113.619743 -55.619968 93.847633 151.200947 -0.628406 79.164483 14.571173 9.083683 -7.421051 -1.140296 12.594808 23.675446 -6.688160 1.188811 -8.541912 nan nan nan -10.675274 -4.122673 5.730913 -2.921173 -0.738929 21.898698 1.280083 3.319716 -12.085546 nan nan nan 3.422207 0.971281 12.009868 -0.981462 -2.955094 8.168604 -0.078735 -0.085937 -6.119158 -5.062705 15.627099 15.682271 -2.437934 22.638656 20.702486 -18.605913 -17.370091 6.142551 -43.952788 -16.515573 -8.325962 75.408066 -48.821369 -58.637337 10.859224 -30.429659 -30.381078 9.918900 24.597368 2.277722 68.782039 28.990098 25.452258 -159.702578 80.758011 -139.397461 1.998683 26.595446 -38.669936 
